<mxfile host="app.diagrams.net" modified="2022-06-26T23:46:22.451Z" agent="5.0 (X11)" etag="9HotFj-QFBHV3YZ00Av1" version="20.0.3" type="github">
  <diagram id="eE_6ue5iaBIaWCySbK9c" name="Page-1">
    <mxGraphModel dx="413" dy="229" grid="1" gridSize="10" guides="1" tooltips="1" connect="1" arrows="1" fold="1" page="1" pageScale="1" pageWidth="1169" pageHeight="827" math="0" shadow="0">
      <root>
        <mxCell id="0" />
        <mxCell id="1" parent="0" />
        <mxCell id="sFC9SjDeFBoFBHvGQgBR-1" value="&lt;div&gt;1) .Solicita detalhes do produto&lt;/div&gt;&lt;div&gt;[Id do produto]&lt;br&gt;&lt;/div&gt;" style="edgeStyle=orthogonalEdgeStyle;rounded=0;orthogonalLoop=1;jettySize=auto;html=1;entryX=-0.08;entryY=0.006;entryDx=0;entryDy=0;entryPerimeter=0;" parent="1" source="sFC9SjDeFBoFBHvGQgBR-2" target="sFC9SjDeFBoFBHvGQgBR-6" edge="1">
          <mxGeometry x="-0.1542" y="21" relative="1" as="geometry">
            <Array as="points">
              <mxPoint x="260" y="150" />
            </Array>
            <mxPoint as="offset" />
          </mxGeometry>
        </mxCell>
        <mxCell id="sFC9SjDeFBoFBHvGQgBR-2" value="&lt;div&gt;«Actor»&lt;/div&gt;&lt;div&gt;:&lt;u&gt;Visitante&lt;/u&gt;&lt;/div&gt;" style="shape=umlLifeline;perimeter=lifelinePerimeter;whiteSpace=wrap;html=1;container=1;collapsible=0;recursiveResize=0;outlineConnect=0;" parent="1" vertex="1">
          <mxGeometry x="130" y="70" width="70" height="270" as="geometry" />
        </mxCell>
        <mxCell id="sFC9SjDeFBoFBHvGQgBR-5" value="t:&lt;u&gt;Terminal&lt;/u&gt;" style="shape=umlLifeline;perimeter=lifelinePerimeter;whiteSpace=wrap;html=1;container=1;collapsible=0;recursiveResize=0;outlineConnect=0;" parent="1" vertex="1">
          <mxGeometry x="380" y="70" width="80" height="270" as="geometry" />
        </mxCell>
        <mxCell id="sFC9SjDeFBoFBHvGQgBR-6" value="" style="html=1;points=[];perimeter=orthogonalPerimeter;" parent="sFC9SjDeFBoFBHvGQgBR-5" vertex="1">
          <mxGeometry x="35" y="80" width="10" height="170" as="geometry" />
        </mxCell>
        <mxCell id="71_Q1x2PJ6GsmB_ZL4Tm-1" value="&lt;div&gt;c:&lt;u&gt;Controlador&lt;/u&gt;&lt;/div&gt;" style="shape=umlLifeline;perimeter=lifelinePerimeter;whiteSpace=wrap;html=1;container=1;collapsible=0;recursiveResize=0;outlineConnect=0;" parent="1" vertex="1">
          <mxGeometry x="585" y="70" width="90" height="270" as="geometry" />
        </mxCell>
        <mxCell id="71_Q1x2PJ6GsmB_ZL4Tm-2" value="" style="html=1;points=[];perimeter=orthogonalPerimeter;" parent="71_Q1x2PJ6GsmB_ZL4Tm-1" vertex="1">
          <mxGeometry x="40" y="110" width="10" height="130" as="geometry" />
        </mxCell>
        <mxCell id="71_Q1x2PJ6GsmB_ZL4Tm-3" value="&lt;div&gt;3) .Pesquisa produto&lt;/div&gt;&lt;div&gt;[Id do produto]&lt;br&gt;&lt;/div&gt;" style="edgeStyle=orthogonalEdgeStyle;rounded=0;orthogonalLoop=1;jettySize=auto;html=1;endArrow=block;endFill=1;" parent="1" edge="1">
          <mxGeometry y="76" relative="1" as="geometry">
            <mxPoint x="635" y="185" as="sourcePoint" />
            <mxPoint x="635" y="215" as="targetPoint" />
            <Array as="points">
              <mxPoint x="635" y="185" />
              <mxPoint x="689" y="185" />
              <mxPoint x="689" y="215" />
            </Array>
            <mxPoint as="offset" />
          </mxGeometry>
        </mxCell>
        <mxCell id="71_Q1x2PJ6GsmB_ZL4Tm-8" value="p:&lt;u&gt;Produto&lt;/u&gt;" style="shape=umlLifeline;perimeter=lifelinePerimeter;whiteSpace=wrap;html=1;container=1;collapsible=0;recursiveResize=0;outlineConnect=0;" parent="1" vertex="1">
          <mxGeometry x="780" y="70" width="100" height="270" as="geometry" />
        </mxCell>
        <mxCell id="71_Q1x2PJ6GsmB_ZL4Tm-11" value="" style="html=1;points=[];perimeter=orthogonalPerimeter;" parent="71_Q1x2PJ6GsmB_ZL4Tm-8" vertex="1">
          <mxGeometry x="45" y="170" width="10" height="50" as="geometry" />
        </mxCell>
        <mxCell id="71_Q1x2PJ6GsmB_ZL4Tm-9" value="4) .obter detalhes" style="html=1;verticalAlign=bottom;endArrow=block;rounded=0;entryX=-0.086;entryY=-0.009;entryDx=0;entryDy=0;entryPerimeter=0;" parent="1" target="71_Q1x2PJ6GsmB_ZL4Tm-11" edge="1">
          <mxGeometry width="80" relative="1" as="geometry">
            <mxPoint x="640" y="240" as="sourcePoint" />
            <mxPoint x="880" y="240" as="targetPoint" />
          </mxGeometry>
        </mxCell>
        <mxCell id="71_Q1x2PJ6GsmB_ZL4Tm-10" value="5)" style="html=1;verticalAlign=bottom;endArrow=block;rounded=0;dashed=1;exitX=0.057;exitY=0.991;exitDx=0;exitDy=0;exitPerimeter=0;" parent="1" source="71_Q1x2PJ6GsmB_ZL4Tm-11" edge="1">
          <mxGeometry width="80" relative="1" as="geometry">
            <mxPoint x="880" y="290" as="sourcePoint" />
            <mxPoint x="640" y="290" as="targetPoint" />
          </mxGeometry>
        </mxCell>
        <mxCell id="71_Q1x2PJ6GsmB_ZL4Tm-14" value="6)" style="html=1;verticalAlign=bottom;endArrow=block;rounded=0;dashed=1;" parent="1" edge="1">
          <mxGeometry width="80" relative="1" as="geometry">
            <mxPoint x="620" y="308" as="sourcePoint" />
            <mxPoint x="430" y="308" as="targetPoint" />
          </mxGeometry>
        </mxCell>
        <mxCell id="71_Q1x2PJ6GsmB_ZL4Tm-15" value="7)" style="html=1;verticalAlign=bottom;endArrow=block;rounded=0;dashed=1;" parent="1" edge="1">
          <mxGeometry width="80" relative="1" as="geometry">
            <mxPoint x="410" y="320" as="sourcePoint" />
            <mxPoint x="165" y="320" as="targetPoint" />
          </mxGeometry>
        </mxCell>
        <mxCell id="iokI9-kfcJKbSi2bIdjo-1" value="&lt;div&gt;2) .Solicita detalhes do produto&lt;/div&gt;&lt;div&gt;[Id do produto]&lt;/div&gt;" style="html=1;verticalAlign=bottom;endArrow=block;rounded=0;exitX=0.914;exitY=0.177;exitDx=0;exitDy=0;exitPerimeter=0;" edge="1" parent="1" source="sFC9SjDeFBoFBHvGQgBR-6" target="71_Q1x2PJ6GsmB_ZL4Tm-1">
          <mxGeometry width="80" relative="1" as="geometry">
            <mxPoint x="430" y="190" as="sourcePoint" />
            <mxPoint x="620" y="190" as="targetPoint" />
          </mxGeometry>
        </mxCell>
      </root>
    </mxGraphModel>
  </diagram>
</mxfile>
